<svg width="30" height="27" viewBox="0 0 30 27" fill="none" xmlns="http://www.w3.org/2000/svg">
<path d="M12.8878 26.6507C13.3877 27.133 14.179 27.1134 14.6552 26.6072C15.1313 26.1009 15.112 25.2995 14.6122 24.8172L4.19312 14.766H28.75C29.4403 14.766 30 14.1992 30 13.5C30 12.8009 29.4403 12.234 28.75 12.234H4.19295L14.6122 2.18267C15.112 1.70043 15.1312 0.899096 14.6552 0.392821C14.179 -0.113437 13.3877 -0.132934 12.8878 0.349305L0.522983 12.2778C0.241433 12.5494 0.0748501 12.8957 0.0232168 13.2559C0.00798347 13.3349 0 13.4166 0 13.5C0 13.5837 0.00801652 13.6654 0.0232999 13.7446C0.0750332 14.1047 0.2416 14.4509 0.522983 14.7223L12.8878 26.6507Z" fill="#DEDEDE"/>
</svg>
