<svg width="50" height="35" viewBox="0 0 50 35" fill="none" xmlns="http://www.w3.org/2000/svg">
<g clip-path="url(#clip0_136_280)">
<path d="M48.9701 3.47647C48.3935 1.33529 46.7049 -0.352941 44.5632 -0.929412C40.6506 -2 24.9999 -2 24.9999 -2C24.9999 -2 9.34922 -2 5.43655 -0.970588C3.33606 -0.394118 1.60625 1.33529 1.02965 3.47647C0 7.38824 0 15.5 0 15.5C0 15.5 0 23.6529 1.02965 27.5235C1.60625 29.6647 3.29488 31.3529 5.43655 31.9294C9.39041 33 24.9999 33 24.9999 33C24.9999 33 40.6506 33 44.5632 31.9706C46.7049 31.3941 48.3935 29.7059 48.9701 27.5647C49.9998 23.6529 49.9998 15.5412 49.9998 15.5412C49.9998 15.5412 50.041 7.38824 48.9701 3.47647V3.47647Z" fill="white"/>
<path d="M33.0314 17.5L20.0166 10.0059V24.9941L33.0314 17.5Z" fill="#242A38"/>
</g>
<defs>
<clipPath id="clip0_136_280">
<rect width="50" height="35" fill="white"/>
</clipPath>
</defs>
</svg>
