<svg width="37" height="37" viewBox="0 0 37 37" fill="none" xmlns="http://www.w3.org/2000/svg">
<path d="M18.5017 0C13.4774 0 12.8468 0.0219691 10.8735 0.111771C8.90399 0.201959 7.55964 0.513761 6.38334 0.97125C5.16656 1.44377 4.13441 2.07585 3.10611 3.10453C2.07703 4.13282 1.44494 5.16497 0.970874 6.38134C0.512224 7.55802 0.200033 8.90274 0.111386 10.8714C0.0231251 12.8448 0 13.4757 0 18.5C0 23.5243 0.0223548 24.1529 0.111772 26.1262C0.202346 28.0957 0.514151 29.44 0.97126 30.6163C1.44417 31.8331 2.07626 32.8653 3.10495 33.8935C4.13287 34.9226 5.16502 35.5562 6.38102 36.0288C7.5581 36.4862 8.90283 36.798 10.8719 36.8882C12.8453 36.978 13.4755 37 18.4994 37C23.5242 37 24.1528 36.978 26.1261 36.8882C28.0956 36.798 29.4415 36.4862 30.6186 36.0288C31.835 35.5562 32.8656 34.9226 33.8935 33.8935C34.9226 32.8653 35.5547 31.8331 36.0287 30.6167C36.4835 29.4401 36.7957 28.0953 36.8882 26.1266C36.9769 24.1533 37 23.5243 37 18.5C37 13.4757 36.9769 12.8452 36.8882 10.8718C36.7957 8.90235 36.4835 7.55802 36.0287 6.38173C35.5547 5.16497 34.9226 4.13282 33.8935 3.10453C32.8644 2.07547 31.8354 1.44339 30.6174 0.97125C29.438 0.513761 28.0929 0.201959 26.1234 0.111771C24.1501 0.0219691 23.5218 0 18.496 0H18.5017ZM16.8421 3.33385C17.3347 3.33308 17.8843 3.33385 18.5017 3.33385C23.4413 3.33385 24.0267 3.35158 25.9774 3.44023C27.7811 3.52271 28.7601 3.8241 29.4122 4.07732C30.2756 4.41264 30.8911 4.81347 31.5382 5.46097C32.1857 6.10847 32.5865 6.72513 32.9226 7.58847C33.1759 8.23982 33.4776 9.21878 33.5597 11.0225C33.6484 12.9727 33.6677 13.5586 33.6677 18.4958C33.6677 23.4329 33.6484 24.0188 33.5597 25.969C33.4773 27.7727 33.1759 28.7517 32.9226 29.4031C32.5873 30.2664 32.1857 30.8811 31.5382 31.5282C30.8907 32.1757 30.2759 32.5766 29.4122 32.9119C28.7609 33.1663 27.7811 33.4669 25.9774 33.5494C24.0271 33.638 23.4413 33.6573 18.5017 33.6573C13.5618 33.6573 12.9763 33.638 11.0261 33.5494C9.22235 33.4661 8.24338 33.1647 7.59086 32.9115C6.72752 32.5762 6.11084 32.1754 5.46334 31.5279C4.81583 30.8804 4.41499 30.2652 4.07891 29.4015C3.82569 28.7502 3.5239 27.7712 3.44181 25.9674C3.35316 24.0172 3.33543 23.4314 3.33543 18.4911C3.33543 13.5509 3.35316 12.9681 3.44181 11.0179C3.52429 9.21416 3.82569 8.2352 4.07891 7.58307C4.41422 6.71974 4.81583 6.10307 5.46334 5.45557C6.11084 4.80807 6.72752 4.40724 7.59086 4.07116C8.24299 3.81678 9.22235 3.51616 11.0261 3.43329C12.7328 3.35621 13.3941 3.33308 16.8421 3.32923V3.33385ZM28.377 6.40562C27.1513 6.40562 26.157 7.39884 26.157 8.62485C26.157 9.85048 27.1513 10.8449 28.377 10.8449C29.6026 10.8449 30.597 9.85048 30.597 8.62485C30.597 7.39923 29.6026 6.40485 28.377 6.40485V6.40562ZM18.5017 8.99948C13.255 8.99948 9.00111 13.2533 9.00111 18.5C9.00111 23.7467 13.255 27.9986 18.5017 27.9986C23.7485 27.9986 28.0008 23.7467 28.0008 18.5C28.0008 13.2533 23.7481 8.99948 18.5013 8.99948H18.5017ZM18.5017 12.3333C21.9073 12.3333 24.6685 15.0941 24.6685 18.5C24.6685 21.9055 21.9073 24.6667 18.5017 24.6667C15.0958 24.6667 12.335 21.9055 12.335 18.5C12.335 15.0941 15.0958 12.3333 18.5017 12.3333V12.3333Z" fill="white"/>
</svg>
